<?xml version="1.0" encoding="iso-8859-1"?>
<!-- Generator: Adobe Illustrator 19.0.0, SVG Export Plug-In . SVG Version: 6.00 Build 0)  -->
<svg version="1.1" id="Layer_1" xmlns="http://www.w3.org/2000/svg" xmlns:xlink="http://www.w3.org/1999/xlink" x="0px" y="0px"
	 viewBox="0 0 512 512" style="enable-background:new 0 0 512 512;" xml:space="preserve">
<path style="fill:#FFC61B;" d="M427.826,365.485c-7.149-2.276-14.8,1.68-17.075,8.836c-21.013,66.089-81.77,110.492-151.182,110.492
	c-87.457,0-158.61-71.151-158.61-158.61c0-87.457,71.153-158.609,158.61-158.609c69.653,0,132.171,46.572,152.033,113.255
	c2.144,7.195,9.714,11.292,16.908,9.147c7.195-2.144,11.291-9.714,9.147-16.908c-9.929-33.336-29.539-63.676-55.778-86.704v-60.503
	C381.88,56.47,325.41,0,255.999,0c-15.482,0-30.606,2.781-44.951,8.268c-7.012,2.682-10.523,10.539-7.842,17.552
	c2.682,7.012,10.535,10.522,17.554,7.842c11.231-4.297,23.088-6.475,35.239-6.475c54.42,0,98.695,44.274,98.695,98.694v40.708
	c-28.664-17.168-61.165-26.184-95.124-26.184c-37.758,0-72.913,11.332-102.265,30.757v-45.281c0-19.693,5.779-38.7,16.712-54.968
	c4.188-6.231,2.531-14.677-3.7-18.865c-6.23-4.186-14.676-2.533-18.865,3.7c-13.958,20.767-21.334,45.019-21.334,70.133v67.189
	c-34.729,33.778-56.344,80.974-56.344,133.132C73.774,428.651,157.121,512,259.571,512c40.23,0,78.515-12.649,110.716-36.578
	c31.565-23.455,54.517-55.566,66.376-92.863C438.936,375.404,434.98,367.759,427.826,365.485z"/>
<circle style="fill:#FEE187;" cx="255.999" cy="326.197" r="109.009"/>
<g>
	<path style="fill:#FFC61B;" d="M255.999,448.809c-67.605,0-122.607-55.001-122.607-122.607s55.002-122.607,122.607-122.607
		s122.607,55.001,122.607,122.607S323.603,448.809,255.999,448.809z M255.999,230.783c-52.615,0-95.419,42.806-95.419,95.419
		s42.804,95.419,95.419,95.419s95.419-42.806,95.419-95.419S308.614,230.783,255.999,230.783z"/>
	<path style="fill:#FFC61B;" d="M255.999,363.392c-3.282,0-6.467-1.188-8.954-3.366l-35.882-31.415
		c-5.648-4.945-6.219-13.534-1.275-19.182c4.948-5.65,13.534-6.219,19.182-1.274l25.289,22.14l35.057-43.008
		c4.744-5.821,13.306-6.691,19.125-1.949c5.818,4.744,6.691,13.307,1.948,19.126l-43.953,53.923c-2.33,2.86-5.722,4.648-9.397,4.958
		C256.757,363.378,256.377,363.392,255.999,363.392z"/>
</g>
<g>
</g>
<g>
</g>
<g>
</g>
<g>
</g>
<g>
</g>
<g>
</g>
<g>
</g>
<g>
</g>
<g>
</g>
<g>
</g>
<g>
</g>
<g>
</g>
<g>
</g>
<g>
</g>
<g>
</g>
</svg>
