<?xml version="1.0" encoding="utf-8"?>
<svg id="master-artboard" viewBox="0 0 200 200" version="1.1" xmlns="http://www.w3.org/2000/svg" x="0px" y="0px" style="enable-background:new 0 0 1400 980;" width="200px" height="200px"><rect id="ee-background" x="0" y="0" width="200" height="200" style="fill: white; fill-opacity: 0; pointer-events: none;"/><defs><style id="ee-google-fonts">@import url(https://fonts.googleapis.com/css?family=Rubik:300,300italic,400,400italic,500,500italic,700,700italic,900,900italic);</style></defs>








































<g transform="matrix(0.2513873175691014, 0, 0, 0.2513873175691014, -0.000009308591856438397, 0.731438324554162)"><rect id="rect-1" x="0" y="0" width="795.5851440429688" height="789.765869140625" style="fill: white; fill-opacity: 0; pointer-events: none;"/><g transform="matrix(15.789889335632326, 0, 0, 15.789889335632326, 278.4419713707641, 282.4376036787874)"><g fill="none"><path d="M 32 16 A 16 16 0 0 1 16 32 A 16 16 0 0 1 0 16 A 16 16 0 0 1 16 0 A 16 16 0 0 1 32 16 Z" fill="#F3BA2F"/><path fill="#FFF" d="M12.116 14.404L16 10.52l3.886 3.886 2.26-2.26L16 6l-6.144 6.144 2.26 2.26zM6 16l2.26-2.26L10.52 16l-2.26 2.26L6 16zm6.116 1.596L16 21.48l3.886-3.886 2.26 2.259L16 26l-6.144-6.144-.003-.003 2.263-2.257zM21.48 16l2.26-2.26L26 16l-2.26 2.26L21.48 16zm-3.188-.002h.002v.002L16 18.294l-2.291-2.29-.004-.004.004-.003.401-.402.195-.195L16 13.706l2.293 2.293z"/></g></g><g transform="matrix(10.468938827514647, 0, 0, 10.468938827514647, -24.125924885713857, -32.092406809863405)"><path d="" transform="translate(41.659459-7.293495)" fill="none" stroke="#3f5787" stroke-width="0.5"/><path d="" transform="translate(25.21545 0.523142)" fill="none" stroke="#3f5787" stroke-width="0.5"/><path d="" transform="translate(25.21545 0.523142)" fill="none" stroke="#3f5787" stroke-width="0.5"/><path d="" transform="translate(25.21545 0.523142)" fill="none" stroke="#3f5787" stroke-width="0.5"/><path d="" transform="translate(10.314755-18.812283)" fill="none" stroke="#3f5787" stroke-width="0.5"/><path d="" transform="translate(26.366363 10.567471)" fill="none" stroke="#3f5787" stroke-width="0.5"/><path d="" transform="translate(10.314755-18.812283)" fill="none" stroke="#3f5787" stroke-width="0.5"/></g></g><g transform="matrix(2.5563168525695805, 0, 0, 2.5563168525695805, -0.4817789958424328, -1.3682597233918017)"><path d="M 16.595219 0 A 16.595219 16.595219 0 0 1 0 16.595219 A 16.595219 16.595219 0 0 1 -16.595219 0 A 16.595219 16.595219 0 0 1 0 -16.595219 A 16.595219 16.595219 0 0 1 16.595219 0 Z" transform="matrix(1.476852 0 0 1.476852 25.0201 25.251181)" fill="#0a8ef6" stroke-width="0"/><path d="" transform="translate(41.659459-7.293495)" fill="none" stroke="#3f5787" stroke-width="0.5"/><path d="" transform="translate(25.21545 0.523142)" fill="none" stroke="#3f5787" stroke-width="0.5"/><path d="" transform="translate(25.21545 0.523142)" fill="none" stroke="#3f5787" stroke-width="0.5"/><path d="" transform="translate(25.21545 0.523142)" fill="none" stroke="#3f5787" stroke-width="0.5"/><g transform="matrix(1.205469 0 0 1.212815 14.263974-20.49569)"><path d="M38.36241,50.28523l1.69471-2.15519c2.97989,3.47341,7.40133,5.67392,12.33673,5.67392c6.66964,0,12.40067-4.01867,14.90379-9.76673L50.46142,29.69997l-1.83895,2.27456-2.2636-1.83009l1.88565-2.33232-.0119-.01013l2.03227-2.38649l8.6075,7.32991v-4.35302h3.03075v6.93392l8.83156,7.52071-.22264.26145c-2.37327,7.75373-9.58724,13.39244-18.11821,13.39244h-.00001c-5.56278,0-10.56557-2.39755-14.03143-6.21568Zm9.435-.70693v-3.38045h3.38045v3.38045h-3.38045Zm0-4.45035v-3.38045h3.38045v3.38045h-3.38045ZM43.01925,49.5783v-3.38045h3.38045v3.38045h-3.38045Zm0-4.45035v-3.38045h3.38045v3.38045h-3.38045Z" transform="translate(-43.734681-.209256)" fill="#e8e6e6" stroke-width="0"/><path d="M33.44897,37.55604c0,3.65377,1.03435,7.06596,2.82621,9.95972l1.06504-1.35443-.007785-.004187L46.33704,35.21202l15.1386,12.34962l1.87923-2.30363L48.20616,32.90014l.03177-.03929-2.26361-1.8301-9.12111,11.2817c-.45986-1.50437-.70728-3.1015-.70728-4.75642c0-8.97348,7.27445-16.24793,16.24793-16.24793c8.75713,0,15.89617,6.9279,16.23532,15.60192l2.6358,2.32932c.04883-.55459.07376-1.11604.07376-1.68332c0-10.46297-8.48192-18.94489-18.94489-18.94489s-18.94489,8.48192-18.94489,18.94489l.00001.00002Z" transform="translate(-43.420796 0.313885)" fill="#fff" stroke-width="0"/></g><path d="" transform="translate(10.314755-18.812283)" fill="none" stroke="#3f5787" stroke-width="0.5"/><path d="" transform="translate(26.366363 10.567471)" fill="none" stroke="#3f5787" stroke-width="0.5"/><path d="" transform="translate(10.314755-18.812283)" fill="none" stroke="#3f5787" stroke-width="0.5"/></g></svg>