<svg id="epkVMlcy9tE1" xmlns="http://www.w3.org/2000/svg" xmlns:xlink="http://www.w3.org/1999/xlink" viewBox="0 0 50 50" shape-rendering="geometricPrecision" text-rendering="geometricPrecision"><ellipse rx="16.595218" ry="16.595218" transform="matrix(1.476852 0 0 1.476852 25.0201 25.251181)" fill="#0a8ef6" stroke-width="0"/><path d="" transform="translate(41.659459-7.293495)" fill="none" stroke="#3f5787" stroke-width="0.5"/><path d="" transform="translate(25.21545 0.523142)" fill="none" stroke="#3f5787" stroke-width="0.5"/><path d="" transform="translate(25.21545 0.523142)" fill="none" stroke="#3f5787" stroke-width="0.5"/><path d="" transform="translate(25.21545 0.523142)" fill="none" stroke="#3f5787" stroke-width="0.5"/><g transform="matrix(1.205469 0 0 1.212815 14.263974-20.49569)"><path d="M38.36241,50.28523l1.69471-2.15519c2.97989,3.47341,7.40133,5.67392,12.33673,5.67392c6.66964,0,12.40067-4.01867,14.90379-9.76673L50.46142,29.69997l-1.83895,2.27456-2.2636-1.83009l1.88565-2.33232-.0119-.01013l2.03227-2.38649l8.6075,7.32991v-4.35302h3.03075v6.93392l8.83156,7.52071-.22264.26145c-2.37327,7.75373-9.58724,13.39244-18.11821,13.39244h-.00001c-5.56278,0-10.56557-2.39755-14.03143-6.21568Zm9.435-.70693v-3.38045h3.38045v3.38045h-3.38045Zm0-4.45035v-3.38045h3.38045v3.38045h-3.38045ZM43.01925,49.5783v-3.38045h3.38045v3.38045h-3.38045Zm0-4.45035v-3.38045h3.38045v3.38045h-3.38045Z" transform="translate(-43.734681-.209256)" fill="#e8e6e6" stroke-width="0"/><path d="M33.44897,37.55604c0,3.65377,1.03435,7.06596,2.82621,9.95972l1.06504-1.35443-.007785-.004187L46.33704,35.21202l15.1386,12.34962l1.87923-2.30363L48.20616,32.90014l.03177-.03929-2.26361-1.8301-9.12111,11.2817c-.45986-1.50437-.70728-3.1015-.70728-4.75642c0-8.97348,7.27445-16.24793,16.24793-16.24793c8.75713,0,15.89617,6.9279,16.23532,15.60192l2.6358,2.32932c.04883-.55459.07376-1.11604.07376-1.68332c0-10.46297-8.48192-18.94489-18.94489-18.94489s-18.94489,8.48192-18.94489,18.94489l.00001.00002Z" transform="translate(-43.420796 0.313885)" fill="#fff" stroke-width="0"/></g><path d="" transform="translate(10.314755-18.812283)" fill="none" stroke="#3f5787" stroke-width="0.5"/><path d="" transform="translate(26.366363 10.567471)" fill="none" stroke="#3f5787" stroke-width="0.5"/><path d="" transform="translate(10.314755-18.812283)" fill="none" stroke="#3f5787" stroke-width="0.5"/></svg>