<svg id="ej4V7eCadqf1" xmlns="http://www.w3.org/2000/svg" xmlns:xlink="http://www.w3.org/1999/xlink" viewBox="0 0 200 143.4" shape-rendering="geometricPrecision" text-rendering="geometricPrecision"><g transform="matrix(1.597874 0 0 1.740703 2.7051 0.008075)"><path d="M0,82.38c1.01-13.1-1.56-12.53,9.41-16.64c5.48-2.05,12.47-4.65,17.5-7.79l9.41,24.43h-36.32v0Zm88.46-64.7l4.3.73c.44.07.74.49.66.93l-1.77,10.6c-.07.44-.49.74-.93.66l-4.3-.72c-.44-.07-.74-.49-.66-.93l1.77-10.6c.07-.44.49-.74.93-.67v0v0Zm12.44-6.17c.78-2.06,3.93.49,3.59,3.96-.11,1.06-.42,2.26-.91,3.59l4.98.83c2.06.43,3.62,2.21,1.93,4.44.11,1.11-.05,2.36-.92,2.72-.18,1.69-.82,2.65-1.82,3.33-.2.83-.5,1.54-1,2.05-.83.83-1.33.52-2.39.34l-8.41-1.41c-1.33-.22-2-.71-2.69-1.95l1.57-9.37c2.62-.26,4.53-3.47,5.58-5.6l.49-2.93v0v0ZM47.06,69.39h1.31c1.18,0,2.15-.97,2.15-2.15v-3.49c0-1.18-.97-2.15-2.15-2.15h-7.79c-1.18,0-2.15.97-2.15,2.15v3.49c0,1.18.97,2.15,2.15,2.15h1.33L39.36,82.38h10.16L47.06,69.39v0v0ZM86.86,3.36c-1.15-.15-2.24-.09-3.24.18s-1.96.75-2.87,1.44c-.9.69-1.61,1.49-2.14,2.39-.52.9-.86,1.93-1.02,3.08L75.31,27.64c-.15,1.15-.09,2.24.18,3.24s.75,1.96,1.44,2.87c.71.9,1.51,1.64,2.41,2.14.9.52,1.91.86,3.06,1.01l7.56,1c.88.12,1.52.94,1.4,1.83-.03.2-.09.37-.16.54-.43,1.02-.88,2.04-1.37,3.01-.52,1.03-1.05,2-1.63,2.93-.29.48-.62.93-.97,1.4c1.64-.48,3.2-1.08,4.67-1.79c1.54-.74,3-1.6,4.36-2.57c1.39-.98,2.66-2.1,3.85-3.31.37-.38.88-.53,1.37-.47l6.5.86c1.15.15,2.21.09,3.22-.18c1-.27,1.96-.75,2.89-1.44.9-.69,1.61-1.49,2.14-2.39.52-.9.86-1.93,1.02-3.08l2.28-17.19c.15-1.15.09-2.24-.18-3.24s-.75-1.97-1.44-2.87-1.49-1.61-2.39-2.14c-.9-.52-1.93-.86-3.08-1.02l-7.97-1.09L86.86,3.36v0Zm8.41-2.17l17.61,2.33c1.55.21,2.97.69,4.26,1.42c1.27.73,2.4,1.73,3.36,2.99.96,1.25,1.63,2.6,2.01,4.02.37,1.42.47,2.92.26,4.49l-2.28,17.19c-.21,1.57-.69,2.99-1.42,4.26s-1.73,2.4-2.99,3.36c-1.25.96-2.6,1.61-4.02,2.01-1.42.37-2.92.47-4.49.26l-5.7-.76c-1.16,1.13-2.4,2.18-3.69,3.11-1.54,1.1-3.15,2.06-4.85,2.86-1.71.83-3.51,1.51-5.4,2.05-1.87.54-3.85.93-5.91,1.19-.59.08-1.19-.18-1.55-.7-.51-.74-.31-1.75.43-2.26c1.04-.69,1.94-1.43,2.69-2.18.73-.74,1.35-1.51,1.84-2.32v-.02c.54-.87,1.04-1.77,1.5-2.68.15-.32.31-.66.47-.99l-5.44-.72c-1.55-.2-2.97-.69-4.26-1.42-1.27-.73-2.4-1.73-3.36-2.99-.96-1.25-1.63-2.6-2.01-4.02-.37-1.44-.46-2.94-.26-4.48L74.37,10c.21-1.55.69-2.97,1.42-4.26.73-1.27,1.73-2.4,2.99-3.36c1.25-.96,2.6-1.63,4.02-2.01c1.41-.37,2.91-.47,4.47-.26l8,1.08v0ZM33.43,50.44c.24-2.01-5.72-9.69-6.81-13.37-2.33-3.71-3.16-9.61-.62-13.53c1.01-1.56.58-4.33.58-6.48c0-21.35,37.41-21.36,37.41,0c0,2.7-.62,4.75.84,6.88c2.45,3.55,1.19,9.84-.88,13.14-1.32,3.87-7.58,11.18-7.15,13.37.39,10.95-23.44,10.59-23.37-.01v0v0Zm29.03,6.39c4.6,2.94,11.12,5.36,16.33,7.1C89.03,67.34,89,67.81,88.93,82.38h-36.18l9.71-25.55v0v0Z" clip-rule="evenodd" fill="#f3ba2f" fill-rule="evenodd"/></g></svg>